HIERARCHY
ROOT root
{
	OFFSET	0	13.1	24.9
	CHANNELS 6  Xposition Yposition Zposition Xrotation Yrotation Zrotation
	JOINT spine_1
	{
		OFFSET	0	9.99999	0
		CHANNELS 3  Xrotation Yrotation Zrotation
		JOINT spine_2
		{
			OFFSET	0	112	-10
			CHANNELS 3  Xrotation Yrotation Zrotation
			JOINT spine_3
			{
				OFFSET	0	206.5	19.3
				CHANNELS 3  Xrotation Yrotation Zrotation
				JOINT spine_4
				{
					OFFSET	0	110.4	14.6
					CHANNELS 3  Xrotation Yrotation Zrotation
					JOINT neck_1
					{
						OFFSET	0	71.8	-50.3
						CHANNELS 3  Xrotation Yrotation Zrotation
						JOINT neck_2
						{
							OFFSET	0	86.2	-25.8
							CHANNELS 3  Xrotation Yrotation Zrotation
							JOINT head_ee
							{
								OFFSET	0	179.8	-8.7
								CHANNELS 3  Xrotation Yrotation Zrotation
								End Site
								{
									OFFSET	1	0	0
								}
							}
						}
					}
					JOINT left_clavicle
					{
						OFFSET	-43.2	22.4	-70.8
						CHANNELS 3  Xrotation Yrotation Zrotation
						JOINT left_shoulder
						{
							OFFSET	-93.9	-5.79999	48.7
							CHANNELS 3  Xrotation Yrotation Zrotation
							JOINT left_elbow
							{
								OFFSET	-291.4	-30.8	15.2
								CHANNELS 3  Xrotation Yrotation Zrotation
								JOINT left_lowarm_twist
								{
									OFFSET	-110.7	-3.89999	13.6
									CHANNELS 3  Xrotation Yrotation Zrotation
									JOINT left_hand
									{
										OFFSET	-110.7	-3.89999	13.6
										CHANNELS 3  Xrotation Yrotation Zrotation
										JOINT left_ee
										{
											OFFSET	-80.8	-5.10001	12.1
											CHANNELS 3  Xrotation Yrotation Zrotation
											End Site
											{
												OFFSET	1	0	0
											}
										}
									}
								}
							}
						}
					}
					JOINT right_clavicle
					{
						OFFSET	43.2	22.4	-70.8
						CHANNELS 3  Xrotation Yrotation Zrotation
						JOINT right_shoulder
						{
							OFFSET	93.9	-5.79999	48.7
							CHANNELS 3  Xrotation Yrotation Zrotation
							JOINT right_elbow
							{
								OFFSET	291.4	-30.8	15.2
								CHANNELS 3  Xrotation Yrotation Zrotation
								JOINT right_lowarm_twist
								{
									OFFSET	110.7	-3.89999	13.6
									CHANNELS 3  Xrotation Yrotation Zrotation
									JOINT right_hand
									{
										OFFSET	110.7	-3.89999	13.6
										CHANNELS 3  Xrotation Yrotation Zrotation
										JOINT right_ee
										{
											OFFSET	80.8	-5.10001	12.1
											CHANNELS 3  Xrotation Yrotation Zrotation
											End Site
											{
												OFFSET	1	0	0
											}
										}
									}
								}
							}
						}
					}
				}
			}
		}
	}
	JOINT left_hip
	{
		OFFSET	-82.8	-127.5	0.300001
		CHANNELS 3  Xrotation Yrotation Zrotation
		JOINT left_knee
		{
			OFFSET	-28.2	-396.7	2.2
			CHANNELS 3  Xrotation Yrotation Zrotation
			JOINT left_ankle
			{
				OFFSET	-11.7	-411.3	35.4
				CHANNELS 3  Xrotation Yrotation Zrotation
				JOINT left_toes
				{
					OFFSET	0	-60	-88.6
					CHANNELS 3  Xrotation Yrotation Zrotation
					JOINT left_foot_ee
					{
						OFFSET	-22.5	-16.5	-42.2
						CHANNELS 3  Xrotation Yrotation Zrotation
						End Site
						{
							OFFSET	1	0	0
						}
					}
				}
			}
		}
	}
	JOINT right_hip
	{
		OFFSET	82.8	-127.5	0.300001
		CHANNELS 3  Xrotation Yrotation Zrotation
		JOINT right_knee
		{
			OFFSET	28.2	-396.7	2.2
			CHANNELS 3  Xrotation Yrotation Zrotation
			JOINT right_ankle
			{
				OFFSET	11.7	-411.3	35.4
				CHANNELS 3  Xrotation Yrotation Zrotation
				JOINT right_toes
				{
					OFFSET	0	-60	-88.6
					CHANNELS 3  Xrotation Yrotation Zrotation
					JOINT right_foot_ee
					{
						OFFSET	22.5	-16.5	-42.2
						CHANNELS 3  Xrotation Yrotation Zrotation
						End Site
						{
							OFFSET	1	0	0
						}
					}
				}
			}
		}
	}
}
MOTION
Frames: 15
Frame Time: 0.02
2719.33 673.445 -1495.53 -10.3143 69.2067 10.2673 0.786322 -0.441935 -0.200937 0.786242 -0.428253 -0.228651 0.787973 -0.374913 -0.30842 0.788085 -0.418917 -0.245338 -6.20741 19.3262 4.92281 -6.08055 32.3039 8.65806 -0.0 0.0 -0.0 7.89741 16.706 14.4718 -1.80238 -19.6932 55.3472 2.57684 -51.9163 1.25464 -63.7188 -5.74853 5.20182 0.505807 10.3723 7.54526 -0.0 0.0 -0.0 11.8096 4.82372 -23.7368 -19.9343 2.70761 -64.5271 0.322755 9.08395 -0.0256394 -40.6556 3.02115 -4.10734 -6.74778 -29.059 26.0046 0.0 0.0 0.0 -19.9409 23.3 8.12887 -1.41392 0.0556306 0.209849 34.6903 -2.90959 -4.41663 -34.6767 0.0 0.0 -0.0 0.0 -0.0 33.5936 8.64312 -10.109 2.05177 0.0899124 0.301984 -22.0569 -2.8178 -3.33488 11.7411 -0.0 -0.0 0.0 0.0 0.0 
2691.43 665.836 -1501.5 -8.60703 68.8552 8.10163 0.796071 -0.256296 -0.0950157 0.796041 -0.249731 -0.111132 0.79653 -0.223015 -0.158051 0.796579 -0.245177 -0.120846 -5.56555 19.4452 4.95934 -5.36434 32.337 8.53837 -0.0 0.0 -0.0 6.97 17.3833 12.9103 -3.59325 -21.4259 57.1177 2.4177 -50.1318 1.13091 -62.0624 -5.54031 5.16074 0.454121 9.04049 6.69054 -0.0 0.0 -0.0 11.4431 3.07402 -22.8582 -20.1266 2.94514 -64.8963 0.39406 11.0458 -0.0381027 -41.252 3.08528 -4.14912 -6.36723 -29.2186 23.5429 0.0 0.0 0.0 -21.7964 23.016 8.32357 -1.71888 0.0669484 0.255283 35.7603 -4.39082 -4.53839 -33.952 0.0 0.0 -0.0 0.0 -0.0 32.2401 8.73615 -10.3059 0.769706 0.0324597 0.113654 -22.7799 1.49957 -3.48103 8.00798 -0.0 -0.0 0.0 0.0 0.0 
2667.5 666.882 -1506.16 -8.43133 69.4778 7.63199 0.834998 -0.199241 -0.0715861 0.83498 -0.194282 -0.0841194 0.835268 -0.174039 -0.120549 0.835298 -0.190893 -0.0915501 -5.76875 18.9681 4.47972 -5.6048 31.8488 8.02759 -0.0 0.0 -0.0 6.79522 17.4018 12.6289 -6.70356 -22.4974 57.6446 2.32178 -48.9874 1.0579 -61.6217 -5.48509 5.1488 0.581803 8.24662 7.20961 -0.0 0.0 -0.0 11.6256 3.47429 -23.2739 -19.8856 2.81658 -64.8521 0.435584 12.1766 -0.0464606 -41.7551 3.13972 -4.18384 -6.36301 -28.9428 23.7611 0.0 0.0 0.0 -23.2155 22.5693 8.48229 -1.93923 0.0749754 0.288147 33.4308 -3.95432 -4.3048 -34.3258 0.0 0.0 -0.0 0.0 -0.0 30.8064 8.61113 -9.93413 -0.182569 -0.00747468 -0.02702 -19.2812 0.0851395 -2.93236 8.53572 -0.0 -0.0 0.0 0.0 0.0 
2645.5 668.453 -1509.61 -8.57934 69.7514 7.52924 0.976531 -0.0312399 -0.173784 0.976547 -0.0201183 -0.17542 0.976614 0.0142025 -0.175997 0.97657 -0.0137712 -0.176032 -5.43926 18.1665 3.17493 -5.26446 31.2356 6.48458 -0.0 0.0 -0.0 6.92147 18.2586 12.7695 -9.59773 -22.8121 58.2761 2.2066 -47.5402 0.971948 -61.242 -5.4376 5.13816 0.493081 7.69958 6.41502 -0.0 0.0 -0.0 11.7109 3.25913 -23.4489 -19.2528 2.43887 -64.66 0.465141 12.9757 -0.0528963 -42.0125 3.16769 -4.20142 -6.31049 -29.119 23.2902 0.0 0.0 0.0 -23.6541 22.9267 8.72216 -1.03843 0.041363 0.15399 31.5285 -4.49866 -4.11736 -34.6966 0.0 0.0 -0.0 0.0 -0.0 29.7015 8.99425 -9.58612 -0.805671 -0.0323347 -0.119411 -17.4715 1.07973 -2.66242 7.87637 -0.0 -0.0 0.0 0.0 0.0 
2619.31 669.346 -1512.12 -7.70969 68.556 6.4433 0.983836 0.214832 -0.275499 0.983848 0.231927 -0.26127 0.98277 0.278075 -0.211487 0.982788 0.241185 -0.25275 -6.17445 17.8002 2.64198 -6.08535 31.0974 6.08228 -0.0 0.0 -0.0 6.70333 19.6059 12.3305 -11.7499 -23.49 58.9579 1.87413 -42.8689 0.735818 -60.0059 -5.28349 5.10136 0.264374 7.07635 4.67269 -0.0 0.0 -0.0 11.637 3.37854 -23.294 -18.4267 2.5324 -64.5627 0.449198 12.5452 -0.0493748 -42.5958 3.23136 -4.2408 -6.09452 -29.0672 22.0477 0.0 0.0 0.0 -23.0652 22.6361 8.19078 -9.89255 0.2792 1.49064 33.8414 -5.83367 -4.37235 -32.8523 0.0 0.0 -0.0 0.0 -0.0 28.0494 9.05256 -9.26938 -2.35782 -0.0898748 -0.35066 -10.4994 3.17021 -1.60054 8.00288 -0.0 -0.0 0.0 0.0 0.0 
2597.45 670.766 -1513.99 -6.62146 67.6984 5.38236 0.973897 0.415097 -0.285609 0.973839 0.43243 -0.258616 0.971832 0.474312 -0.170015 0.972063 0.441509 -0.242792 -6.44465 17.6324 2.36052 -6.38737 31.041 5.84311 -0.0 0.0 -0.0 6.76297 21.2331 12.2959 -13.0979 -23.4507 59.7602 1.62237 -38.7849 0.571119 -59.3392 -5.20069 5.08013 0.18935 6.31147 3.87213 -0.0 0.0 -0.0 11.7035 3.80757 -23.4597 -16.9194 1.81976 -64.7357 0.407741 11.4194 -0.0407677 -43.2298 3.30102 -4.28286 -5.90522 -29.0551 20.9417 0.0 0.0 0.0 -22.0816 22.3221 7.55356 -15.2484 0.321963 2.311 34.2556 -6.42804 -4.42295 -32.2056 0.0 0.0 -0.0 0.0 -0.0 26.314 9.19458 -8.92985 -3.0778 -0.114431 -0.458427 -6.07564 5.14642 -0.926925 7.22076 -0.0 -0.0 0.0 0.0 0.0 
2570.99 673.599 -1521.69 -4.3179 67.4962 3.04825 0.955949 0.332285 -0.176028 0.955901 0.342813 -0.154527 0.954946 0.366266 -0.0851374 0.955105 0.348223 -0.141914 -6.32939 18.0651 2.60481 -6.25536 31.6506 6.14164 -0.0 0.0 -0.0 5.06317 22.6356 9.73266 -14.0803 -24.2906 63.2898 1.46168 -35.9051 0.473615 -59.2702 -5.19213 5.07788 0.123106 6.01906 3.31901 -0.0 0.0 -0.0 12.1105 4.04829 -24.3645 -14.5158 0.344645 -65.6263 0.326904 9.19874 -0.0262985 -45.1666 3.51662 -4.40655 -5.77683 -29.091 20.1617 0.0 0.0 0.0 -19.9821 19.2029 5.38879 -22.1876 0.26324 3.37344 27.2851 -7.96659 -3.70669 -32.1554 0.0 0.0 -0.0 0.0 -0.0 25.1973 8.94323 -9.33824 -7.61419 -0.2378 -1.1435 -0.910047 2.52141 -0.135946 9.9584 -0.0 -0.0 0.0 0.0 0.0 
2555.26 675.669 -1527.42 -4.75246 66.4316 3.44072 0.997349 0.748358 -0.026064 0.997038 0.7485 0.0216115 0.997266 0.730237 0.165756 0.998007 0.74725 0.0483418 -6.25815 17.6951 1.41266 -6.18029 31.8064 4.85812 -0.0 0.0 -0.0 5.56706 23.3285 10.417 -16.0306 -22.5659 62.4862 1.23657 -31.4887 0.34863 -59.1889 -5.18206 5.07521 0.0121083 6.56476 2.81733 -0.0 0.0 -0.0 12.2237 5.25612 -24.6708 -11.8432 1.21428 -66.3143 0.292029 8.23165 -0.021014 -44.3951 3.43024 -4.35815 -5.39869 -28.9153 18.1146 0.0 0.0 0.0 -17.5668 19.0923 3.74347 -25.275 0.195858 3.84238 30.7864 -8.88496 -4.10955 -31.5026 0.0 0.0 -0.0 0.0 -0.0 23.7175 9.09258 -9.00104 -7.86256 -0.242983 -1.18126 1.68344 7.78944 0.255393 10.8235 -0.0 -0.0 0.0 0.0 0.0 
2538.29 682.534 -1532.54 -4.09322 65.9845 2.6035 1.00253 0.831888 0.110466 1.00216 0.823172 0.163181 1.00448 0.776211 0.318969 1.00527 0.816844 0.192371 -7.40347 17.7833 1.76603 -7.45998 31.9258 5.56344 -0.0 0.0 -0.0 5.02839 24.3897 9.61618 -17.0348 -21.7555 63.529 1.08629 -28.2846 0.273717 -59.0579 -5.16582 5.07088 0.00748833 6.73948 2.85909 -0.0 0.0 -0.0 12.376 6.16711 -25.0467 -9.20577 0.953829 -66.9984 0.235039 6.64128 -0.0136372 -44.6829 3.46239 -4.37634 -5.15445 -28.7114 16.8719 0.0 0.0 0.0 -14.9256 17.4913 2.25846 -27.7794 0.122694 4.21974 28.8337 -9.48283 -3.9079 -31.7479 0.0 0.0 -0.0 0.0 -0.0 22.4221 9.06778 -8.92871 -9.13254 -0.266925 -1.37466 3.66429 8.49487 0.554723 11.888 -0.0 -0.0 0.0 0.0 0.0 
2522.09 683.378 -1538.65 -6.10451 67.0439 4.74681 1.22181 0.566344 0.172979 1.22166 0.554189 0.208667 1.22369 0.504692 0.309766 1.22398 0.547279 0.22617 -7.40057 18.2643 2.80043 -7.44946 32.0988 6.68778 -0.0 0.0 -0.0 4.13977 25.235 8.38655 -17.0767 -18.7273 65.5588 0.982218 -25.9453 0.226275 -58.9561 -5.15322 5.0675 0.023284 6.31163 2.7861 -0.0 0.0 -0.0 12.3884 6.82024 -25.0966 -6.77395 0.149494 -68.0199 0.200006 5.65836 -0.00988403 -44.9924 3.49706 -4.39572 -4.9744 -28.8122 15.7754 0.0 0.0 0.0 -13.2637 15.6827 0.553839 -29.6345 0.0578925 4.49705 27.0907 -11.4769 -3.75021 -32.0721 0.0 0.0 -0.0 0.0 -0.0 20.5999 9.33544 -8.54831 -6.09406 -0.202511 -0.912895 2.97747 9.12179 0.453197 9.76371 -0.0 -0.0 0.0 0.0 0.0 
2505.53 686.762 -1544.24 -5.89304 66.6601 4.60767 1.34032 0.974718 0.158888 1.33982 0.962632 0.220596 1.34354 0.904342 0.39686 1.3446 0.955668 0.249045 -8.38178 17.8597 2.09058 -8.55433 32.0155 6.19238 -0.0 0.0 -0.0 3.91994 26.0163 8.08402 -19.4293 -19.9634 64.9276 0.893475 -23.8739 0.188891 -58.8405 -5.13891 5.06362 -0.0129038 7.06381 2.85963 -0.0 0.0 -0.0 12.6197 7.5315 -25.6394 -5.00475 0.605326 -68.1478 0.180272 5.10318 -0.00803342 -45.0181 3.49994 -4.39732 -4.84706 -28.4997 15.2809 0.0 0.0 0.0 -11.5488 15.4296 -0.0762479 -31.0045 0.0042837 4.70045 26.4877 -10.4665 -3.6598 -32.0923 0.0 0.0 -0.0 0.0 -0.0 20.4855 8.76155 -8.58578 -11.0217 -0.294594 -1.66322 5.93157 9.30711 0.895406 12.9477 -0.0 -0.0 0.0 0.0 0.0 
2488.26 686.227 -1548.07 -6.98033 68.9202 5.28917 1.64989 0.430473 0.347664 1.64986 0.407478 0.374352 1.65257 0.332599 0.442216 1.65252 0.398264 0.38414 -8.84829 18.0614 3.32169 -9.05462 31.6355 7.57397 -0.0 0.0 -0.0 3.52158 24.6626 7.55923 -20.2009 -15.9763 66.8932 0.757003 -20.5559 0.137271 -59.0288 -5.16222 5.06992 -0.214405 9.39622 2.51737 -0.0 0.0 -0.0 12.4972 12.0189 -25.4014 -3.46486 1.53035 -69.99 0.189007 5.34906 -0.00882919 -45.0763 3.50648 -4.40094 -4.61991 -28.4727 14.0197 0.0 0.0 0.0 -10.0158 13.5904 -0.540451 -31.9096 -0.0338004 4.83413 24.9461 -11.2412 -3.49276 -32.229 0.0 0.0 -0.0 0.0 -0.0 18.7907 7.09348 -7.6901 -8.90745 -0.262994 -1.34035 6.58516 8.62471 0.988274 11.9246 -0.0 -0.0 0.0 0.0 0.0 
2470.25 689.551 -1551.38 -8.17233 70.3474 6.41212 1.75249 0.503553 0.350197 1.75243 0.480248 0.38153 1.75568 0.403685 0.461782 1.7557 0.471548 0.392233 -10.2889 18.0524 2.59913 -10.6983 32.3604 7.32442 -0.0 0.0 -0.0 3.06706 25.1003 6.95376 -21.742 -15.6199 67.2739 0.717477 -19.5661 0.123713 -58.8508 -5.14019 5.06397 -0.212552 8.50367 2.15939 -0.0 0.0 -0.0 12.3383 9.89054 -25.0415 -1.11326 2.64249 -70.4504 0.254278 7.17943 -0.0159519 -45.1194 3.51132 -4.40362 -4.60328 -27.7318 14.4388 0.0 0.0 0.0 -9.03148 13.6662 -1.45657 -32.5868 -0.0636768 4.93375 25.463 -12.3224 -3.57671 -32.3464 0.0 0.0 -0.0 0.0 -0.0 18.3095 5.50007 -7.2396 -10.9297 -0.293466 -1.64914 7.93428 7.07292 1.17611 12.0891 -0.0 -0.0 0.0 0.0 0.0 
2448.63 695.27 -1549.99 -8.77229 71.4877 6.31992 1.81383 0.384446 0.45316 1.81387 0.354831 0.476704 1.81687 0.263743 0.532533 1.81664 0.344536 0.484198 -10.286 19.0087 3.40038 -10.7229 33.6469 8.36804 -0.0 0.0 -0.0 2.76733 24.8421 6.54806 -23.5112 -13.2219 68.4572 0.623901 -17.1745 0.094215 -58.9407 -5.15131 5.06698 -0.404831 10.6502 1.81904 -0.0 0.0 -0.0 11.7455 9.99354 -23.7025 -1.77542 4.03005 -71.7708 0.458088 12.7854 -0.0513241 -45.4504 3.54857 -4.42406 -4.26792 -24.1789 14.8835 0.0 0.0 0.0 -6.50104 14.1345 -2.59632 -33.6804 -0.114409 5.09388 24.0607 -13.5267 -3.4328 -32.3242 0.0 0.0 -0.0 0.0 -0.0 16.6953 3.55587 -5.81504 -9.66016 -0.27561 -1.45516 10.588 6.93724 1.55326 12.1223 -0.0 -0.0 0.0 0.0 0.0 
2428.9 696.24 -1554.18 -7.84038 72.4334 5.27233 2.06421 0.328834 0.388549 2.06424 0.303443 0.408685 2.06644 0.227348 0.455428 2.06627 0.29642 0.413808 -11.2086 19.4179 4.85391 -11.735 33.6549 10.1661 -0.0 0.0 -0.0 2.10266 23.8365 5.6136 -24.5113 -10.1021 70.1453 0.513783 -14.2795 0.0643576 -58.5156 -5.09875 5.05258 -0.473893 12.107 1.99013 -0.0 0.0 -0.0 11.4272 10.0044 -22.9889 -1.36173 5.4553 -72.7168 0.647989 17.7964 -0.101453 -46.214 3.63493 -4.47039 -4.07098 -22.1731 14.9983 0.0 0.0 0.0 -4.01384 11.4548 -3.84609 -38.0325 -0.346362 5.72086 26.2298 -13.0236 -3.68331 -32.0904 0.0 0.0 -0.0 0.0 -0.0 14.2323 2.99616 -4.94133 -9.57842 -0.274313 -1.44268 12.0756 6.58856 1.7584 11.7468 -0.0 -0.0 0.0 0.0 0.0 
